<svg fill="#04D361" height="511pt" viewBox="0 0 511 511.88747" width="511pt" xmlns="http://www.w3.org/2000/svg"><path d="m399.132812 254.050781-124.039062-13.792969c-1.59375-.167968-2.851562-1.425781-3.019531-3.019531l-13.796875-124.039062zm-293.238281-86.351562c-11.457031-2.636719-21.527343-9.429688-28.261719-19.0625-2.0625-3.714844-2.332031-8.160157-.738281-12.097657 2.035157-5.574218 6.9375-9.605468 12.796875-10.53125h.742188l1.828125.042969h9.316406c7.132813 0 15.644531-.082031 23.125-.152343 5.484375-.054688 10.339844-.109376 13.28125-.109376 5.050781 0 9.144531-4.09375 9.144531-9.144531s-4.09375-9.144531-9.144531-9.144531h-46.097656c-.738281 0-1.5625 0-2.359375.101562-7.21875-.113281-14.402344-1.035156-21.421875-2.742187-11.429688-2.621094-21.46875-9.417969-28.148438-19.054687-2.089843-3.703126-2.394531-8.152344-.824219-12.105469 2.273438-6.296875 8.210938-10.527344 14.902344-10.621094h83.996094c2.953125-.046875 5.699219-1.515625 7.378906-3.941406 1.714844-2.445313 2.160156-5.566407 1.199219-8.394531-1.257813-3.714844-4.738281-6.214844-8.660156-6.214844h-57.226563c-3.097656 0-6.179687.054687-9.25.097656-3.941406.054688-7.871094.128906-11.886718.074219-9.785157.3125-19.566407-.671875-29.09375-2.925781-11.457032-2.59375-21.535157-9.371094-28.257813-19.007813-2.082031-3.71875-2.363281-8.179687-.769531-12.132813 2.320312-6.316406 8.292968-10.5429682 15.023437-10.632812l134.152344.183594c51.089844.089844 94.539063 37.300781 102.492187 87.769531-9.335937-2.398437-19.246093.195313-26.207031 6.859375l-75.664062 75.664062c-2.148438 0-4.289063 0-6.398438.074219-13.058593.832031-26.171875-.125-38.96875-2.851562zm133.429688-59.429688 11.082031 99.65625-99.65625-11.125zm-83.574219 107.492188 96.730469 10.796875 1.410156 12.699218c1.070313 10.128907 9.074219 18.128907 19.199219 19.203126l12.753906 1.425781 10.707031 96.738281zm170.558594 135.039062-10.777344 10.773438-11.0625-99.660157 99.601562 11.089844zm175.308594 160.074219c-3.933594 1.585938-8.375 1.296875-12.070313-.785156-9.636719-6.71875-16.421875-16.789063-19.027344-28.242188-2.261719-9.582031-3.238281-19.417968-2.90625-29.257812-.054687-3.914063 0-7.828125.082031-11.757813.046876-3.070312.101563-6.164062.101563-9.269531v-57.179688c-.113281-4-2.71875-7.503906-6.519531-8.761718-2.789063-.925782-5.851563-.457032-8.238282 1.261718-2.382812 1.71875-3.792968 4.476563-3.792968 7.417969v83.9375c-.074219 6.730469-4.332032 12.703125-10.671875 14.96875-3.949219 1.550781-8.386719 1.246094-12.085938-.832031-9.625-6.6875-16.414062-16.71875-19.042969-28.140625-1.730468-7.019531-2.671874-14.207031-2.808593-21.433594.066406-.804687.09375-1.625.09375-2.355469v-46.109374c0-5.050782-4.09375-9.144532-9.144531-9.144532-5.050782 0-9.144532 4.09375-9.144532 9.144532 0 2.933593 0 7.734374-.097656 13.238281 0 2.878906-.066406 5.917969-.09375 8.96875-.082031 9.675781-.117188 19.4375.046875 24.96875v1.082031c-.925781 5.886719-4.976563 10.8125-10.578125 12.851562-3.929688 1.578126-8.359375 1.300782-12.058594-.757812-9.632812-6.730469-16.425781-16.792969-19.0625-28.242188-2.710937-12.796874-3.660156-25.902343-2.816406-38.957031 0-2.148437 0-4.277343.0625-6.398437l75.667969-75.675782c6.816406-6.855468 9.503906-16.804687 7.066406-26.160156 50.367187 8.035156 87.460937 51.433594 87.5625 102.4375l.179687 134.144532c-.09375 6.75-4.359374 12.738281-10.703124 15.039062zm0 0"/><path d="m36.894531 319.714844c2.421875 0 4.75-.960938 6.460938-2.675782l64-64c3.464843-3.589843 3.417969-9.292968-.109375-12.816406-3.527344-3.527344-9.230469-3.578125-12.816406-.113281l-64 64c-2.613282 2.613281-3.394532 6.546875-1.980469 9.964844 1.414062 3.414062 4.746093 5.640625 8.445312 5.640625zm0 0"/><path d="m30.429688 408.464844c3.570312 3.570312 9.355468 3.570312 12.925781 0l64-64c3.464843-3.585938 3.417969-9.289063-.109375-12.816406-3.527344-3.527344-9.230469-3.574219-12.816406-.109376l-64 64c-3.570313 3.570313-3.570313 9.355469 0 12.925782zm0 0"/><path d="m198.785156 331.539062c-3.570312-3.570312-9.355468-3.570312-12.925781 0l-100.574219 100.570313c-2.375 2.296875-3.328125 5.695313-2.492187 8.890625.835937 3.199219 3.332031 5.695312 6.53125 6.53125 3.195312.835938 6.59375-.117188 8.890625-2.492188l100.570312-100.574218c3.570313-3.570313 3.570313-9.355469 0-12.925782zm0 0"/><path d="m226.214844 499.894531 64-64c3.464844-3.585937 3.414062-9.289062-.113282-12.816406-3.523437-3.527344-9.226562-3.574219-12.816406-.109375l-64 64c-2.375 2.292969-3.328125 5.691406-2.492187 8.890625.835937 3.195313 3.332031 5.691406 6.53125 6.527344 3.195312.839843 6.59375-.113281 8.890625-2.492188zm0 0"/><path d="m185.859375 422.96875-64 64c-2.378906 2.292969-3.332031 5.691406-2.496094 8.890625.839844 3.195313 3.335938 5.691406 6.53125 6.527344 3.195313.839843 6.597657-.113281 8.890625-2.492188l64-64c3.464844-3.585937 3.417969-9.289062-.109375-12.816406-3.527343-3.527344-9.230469-3.574219-12.816406-.109375zm0 0"/></svg>